<svg xmlns="http://www.w3.org/2000/svg" xmlns:xlink="http://www.w3.org/1999/xlink" width="30.000004806806018" height="11.00000039441602" viewBox="75.99999519319398 4369 30.000004806806018 11.00000039441602"><g><g transform="matrix(1,0,0,1,92,4369)"><text x="0" y="0" dominant-baseline="alphabetic" font-family="Helvetica Neue" font-size="10" font-weight="500" fill="#ff7618" fill-rule="evenodd"><tspan x="0" y="9" font-family="Helvetica Neue" font-size="10" font-weight="500" letter-spacing="0px" fill="rgba(255,118,24,1 )" fill-rule="evenodd">4.0</tspan></text></g><g transform="matrix(1,0,0,1,74,4367)"><path d="M 7.949994087219238 3 L 9.565287590026855 6.134909152984619 L 12.89998912811279 6.781461238861084 L 10.56359100341797 9.365472793579102 L 11.00925636291504 12.89998912811279 L 7.949994087219238 11.36208057403564 L 4.890727043151855 12.89998912811279 L 5.336397171020508 9.365472793579102 L 2.999999523162842 6.781460762023926 L 6.334700584411621 6.134909152984619 L 7.949994087219238 3 Z" transform="matrix(1,0,0,1,-0.45000240206718445,-0.4500005841255188)" fill="#f1e235" fill-rule="evenodd" stroke="#707070" stroke-width="1" stroke-linecap="round" stroke-linejoin="round"/><path d="M 7.499991893768311 2 C 7.705912113189697 2 7.894616603851318 2.115032434463501 7.988941669464111 2.298083305358887 L 9.481969833374023 5.195760726928711 L 12.55470657348633 5.79151439666748 C 12.74951553344727 5.829288482666016 12.90890502929688 5.969103813171387 12.97171592712402 6.157357215881348 C 13.03452682495117 6.345616817474365 12.99107551574707 6.553114891052246 12.85797500610352 6.700349807739258 L 10.69086647033691 9.097137451171875 L 11.10496139526367 12.38118457794189 C 11.13037109375 12.58275985717773 11.0425910949707 12.78191375732422 10.87671089172363 12.89917373657227 C 10.71077537536621 13.01637935638428 10.49374580383301 13.03265857696533 10.31224632263184 12.94141292572021 L 7.49998950958252 11.52769470214844 L 4.687759876251221 12.94141292572021 C 4.50624942779541 13.03265762329102 4.289219379425049 13.01637744903564 4.123311996459961 12.89917373657227 C 3.957404613494873 12.78191375732422 3.869641542434692 12.58275890350342 3.89505672454834 12.38118457794189 L 4.309145927429199 9.097137451171875 L 2.142038345336914 6.700350284576416 C 2.008938312530518 6.553115367889404 1.965466380119324 6.345617294311523 2.028287410736084 6.157357692718506 C 2.091113567352295 5.969103813171387 2.250481605529785 5.829288959503174 2.445318698883057 5.791514873504639 L 5.518028259277344 5.195761203765869 L 7.01109504699707 2.298083782196045 C 7.105420112609863 2.115033149719238 7.294069766998291 2.000000476837158 7.49998950958252 2.000000476837158 Z M 7.499991893768311 3.750785827636719 L 6.373626232147217 5.936824321746826 C 6.296439170837402 6.086627960205078 6.154836177825928 6.192777633666992 5.989396572113037 6.224853515625 L 3.611892223358154 6.685830593109131 L 5.294367790222168 8.546643257141113 C 5.401843070983887 8.665498733520508 5.45212984085083 8.82532787322998 5.432082176208496 8.984278678894043 L 5.115480422973633 11.49519062042236 L 7.252986907958984 10.42071151733398 C 7.408417224884033 10.34255695343018 7.591621398925781 10.34255695343018 7.74705171585083 10.42071151733398 L 9.884513854980469 11.49519062042236 L 9.567934036254883 8.984277725219727 C 9.547859191894531 8.82532787322998 9.598184585571289 8.665497779846191 9.705654144287109 8.546643257141113 L 11.38810348510742 6.685830116271973 L 9.0106201171875 6.224853515625 C 8.845180511474609 6.192777633666992 8.703556060791016 6.086627960205078 8.62639045715332 5.936824321746826 L 7.499991893768311 3.750785827636719 Z" transform="matrix(1,0,0,1,-2.384185791015625e-7,0)" fill="#ff7618" fill-rule="evenodd"/></g></g></svg>